<svg data-v-2cb57da0="" version="1.0" xmlns="http://www.w3.org/2000/svg" xmlns:xlink="http://www.w3.org/1999/xlink" width="100%" height="100%" viewBox="0 0 340.000000 250.000000" preserveAspectRatio="xMidYMid meet" color-interpolation-filters="sRGB" style="margin: auto;"><rect data-v-2cb57da0="" x="0" y="0" width="100%" height="100%" fill="#ffffff" fill-opacity="1" class="background"></rect> <rect data-v-2cb57da0="" x="0" y="0" width="100%" height="100%" fill="url(#watermark)" fill-opacity="1" class="watermarklayer"></rect> <g data-v-2cb57da0="" fill="#333333" class="j-b-g-c iconbgsvg" mask="url(#3e1326dd-52a5-4a74-8d6a-42e9f167ea8e)" transform="translate(82.5,37.5)"><g data-d="container" transform="translate(0,0)"><g><rect fill="#333333" fill-opacity="0" stroke-width="2" x="0" y="0" width="175" height="175" class="image-rect"></rect> <svg filter="url(#colors6840380347)" x="0" y="0" width="175" height="175" filtersec="colorsf8842489066" class="image-svg-container primary" style="overflow: visible;"><svg viewBox="0 0 100 100" xmlns="http://www.w3.org/2000/svg" style="overflow: visible;"><g transform="scale(1, 1) skewX(0)"><rect x="537" y="3121" width="100" height="100" rx="30" transform="translate(-537 -3121)" fill="#333" fill-rule="evenodd"></rect></g></svg></svg> <defs><filter id="colors6840380347"><feColorMatrix type="matrix" values="0 0 0 0 0.19921875  0 0 0 0 0.19921875  0 0 0 0 0.19921875  0 0 0 1 0" class="icon-fecolormatrix"></feColorMatrix></filter> <filter id="colorsf8842489066"><feColorMatrix type="matrix" values="0 0 0 0 0.99609375  0 0 0 0 0.99609375  0 0 0 0 0.99609375  0 0 0 1 0" class="icon-fecolormatrix"></feColorMatrix></filter> <filter id="colorsb3848308547"><feColorMatrix type="matrix" values="0 0 0 0 0  0 0 0 0 0  0 0 0 0 0  0 0 0 1 0" class="icon-fecolormatrix"></feColorMatrix></filter></defs></g></g> <g data-d="icon-text" hollow-target="textRect" transform="translate(11.500030517578125,67.01197052001953)"><g data-d="icon" class="iconsvg-imagesvg" transform="translate(0,0)"><g><!----> <svg filter="url(#colors3640637239)" x="0" y="0" width="152.00000000000006" height="38.97605793073033" filtersec="colorsf248718531" class="image-svg-svg primary" style="overflow: visible;"><svg xmlns="http://www.w3.org/2000/svg" xmlns:xlink="http://www.w3.org/1999/xlink" viewBox="0.0020000338554382324 0 226.5800018310547 58.099998474121094"><path transform="translate(-0.28800000000000003 51.84)" d="M16.78 6.26Q12.38 6.26 8.64 4.79Q4.90 3.31 2.59 0.32Q0.29-2.66 0.29-6.91L0.29-6.91Q0.29-12.24 3.60-14.58Q6.91-16.92 11.38-16.92L11.38-16.92Q9.07-14.54 7.88-11.95Q6.70-9.36 6.70-6.91L6.70-6.91Q6.70-3.02 9.68-0.29Q12.67 2.45 18.00 2.45L18.00 2.45Q21.38 2.45 24.44 1.33Q27.50 0.22 29.41-2.02Q31.32-4.25 31.32-7.27L31.32-7.27Q31.32-9.94 29.81-12.02Q28.30-14.11 26.10-15.62Q23.90-17.14 20.16-19.15L20.16-19.15Q16.20-21.31 13.75-22.97Q11.30-24.62 9.65-27.04Q7.99-29.45 7.99-32.62L7.99-32.62Q7.99-36.72 10.66-41.26Q13.32-45.79 18.14-48.82Q22.97-51.84 28.94-51.84L28.94-51.84Q37.94-51.84 37.94-44.28L37.94-44.28Q37.94-40.61 36.18-36.11Q34.42-31.61 32.18-28.15L32.18-28.15Q29.02-28.80 29.02-31.82L29.02-31.82Q29.02-33.19 29.56-34.96Q30.10-36.72 31.10-39.17L31.10-39.17Q32.11-41.90 32.62-43.49Q33.12-45.07 33.12-46.37L33.12-46.37Q33.12-47.74 32.29-48.42Q31.46-49.10 29.30-49.10L29.30-49.10Q24.98-49.10 21.38-46.66Q17.78-44.21 15.66-40.72Q13.54-37.22 13.54-34.27L13.54-34.27Q13.54-32.11 14.83-30.38Q16.13-28.66 18.11-27.40Q20.09-26.14 23.47-24.34L23.47-24.34Q27.72-22.03 30.28-20.30Q32.83-18.58 34.67-15.84Q36.50-13.10 36.50-9.29L36.50-9.29Q36.50-4.54 33.66-1.01Q30.82 2.52 26.24 4.39Q21.67 6.26 16.78 6.26L16.78 6.26ZM57.60 6.26Q53.21 6.26 49.46 4.79Q45.72 3.31 43.42 0.32Q41.11-2.66 41.11-6.91L41.11-6.91Q41.11-12.24 44.42-14.58Q47.74-16.92 52.20-16.92L52.20-16.92Q49.90-14.54 48.71-11.95Q47.52-9.36 47.52-6.91L47.52-6.91Q47.52-3.02 50.51-0.29Q53.50 2.45 58.82 2.45L58.82 2.45Q62.21 2.45 65.27 1.33Q68.33 0.22 70.24-2.02Q72.14-4.25 72.14-7.27L72.14-7.27Q72.14-9.94 70.63-12.02Q69.12-14.11 66.92-15.62Q64.73-17.14 60.98-19.15L60.98-19.15Q57.02-21.31 54.58-22.97Q52.13-24.62 50.47-27.04Q48.82-29.45 48.82-32.62L48.82-32.62Q48.82-36.72 51.48-41.26Q54.14-45.79 58.97-48.82Q63.79-51.84 69.77-51.84L69.77-51.84Q78.77-51.84 78.77-44.28L78.77-44.28Q78.77-40.61 77.00-36.11Q75.24-31.61 73.01-28.15L73.01-28.15Q69.84-28.80 69.84-31.82L69.84-31.82Q69.84-33.19 70.38-34.96Q70.92-36.72 71.93-39.17L71.93-39.17Q72.94-41.90 73.44-43.49Q73.94-45.07 73.94-46.37L73.94-46.37Q73.94-47.74 73.12-48.42Q72.29-49.10 70.13-49.10L70.13-49.10Q65.81-49.10 62.21-46.66Q58.61-44.21 56.48-40.72Q54.36-37.22 54.36-34.27L54.36-34.27Q54.36-32.11 55.66-30.38Q56.95-28.66 58.93-27.40Q60.91-26.14 64.30-24.34L64.30-24.34Q68.54-22.03 71.10-20.30Q73.66-18.58 75.49-15.84Q77.33-13.10 77.33-9.29L77.33-9.29Q77.33-4.54 74.48-1.01Q71.64 2.52 67.07 4.39Q62.50 6.26 57.60 6.26L57.60 6.26ZM99.65 6.26Q94.39 6.26 90.86 3.74Q87.34 1.22 85.64-2.81Q83.95-6.84 83.95-11.52L83.95-11.52Q83.95-20.81 88.52-30.20Q93.10-39.60 100.22-45.68Q107.35-51.77 114.55-51.77L114.55-51.77Q117.94-51.77 119.99-50.18Q122.04-48.60 122.04-45.22L122.04-45.22Q122.04-42.34 120.71-38.59Q119.38-34.85 117.32-32.22Q115.27-29.59 113.18-29.59L113.18-29.59Q111.38-29.59 110.23-31.82L110.23-31.82Q112.97-34.85 115.52-39.02Q118.08-43.20 118.08-45.79L118.08-45.79Q118.08-48.60 114.84-48.60L114.84-48.60Q109.80-48.60 104.15-42.48Q98.50-36.36 94.72-27.43Q90.94-18.50 90.94-10.87L90.94-10.87Q90.94-5.11 93.53-1.15Q96.12 2.81 101.38 2.81L101.38 2.81Q105.12 2.81 109.01 0.68Q112.90-1.44 116.14-4.97Q119.38-8.50 121.32-12.60L121.32-12.60L123.19-11.38Q119.09-3.60 113.00 1.33Q106.92 6.26 99.65 6.26L99.65 6.26ZM140.11 6.26Q135.86 6.26 132.41 4.07Q128.95 1.87 126.97-2.23Q124.99-6.34 124.99-11.81L124.99-11.81Q124.99-20.88 129.56-30.24Q134.14-39.60 141.48-45.68Q148.82-51.77 156.53-51.77L156.53-51.77Q159.48-51.77 161.42-49.75L161.42-49.75Q160.27-49.90 159.34-49.90L159.34-49.90Q153.29-49.90 146.99-43.85Q140.69-37.80 136.58-28.73Q132.48-19.66 132.48-11.38L132.48-11.38Q132.48-5.18 134.96-1.19Q137.45 2.81 142.63 2.81L142.63 2.81Q148.90 2.81 154.12-3.17Q159.34-9.14 162.32-18.04Q165.31-26.93 165.31-34.99L165.31-34.99Q165.31-38.95 164.56-42.16Q163.80-45.36 162.07-45.36L162.07-45.36Q160.56-45.36 158.58-42.80Q156.60-40.25 154.94-36.65Q153.29-33.05 152.71-30.17L152.71-30.17Q148.18-31.10 148.18-34.34L148.18-34.34Q148.18-36.86 150.55-40.18Q152.93-43.49 156.24-45.90Q159.55-48.31 162.22-48.31L162.22-48.31Q166.03-48.31 167.54-43.49Q169.06-38.66 169.06-32.40L169.06-32.40Q169.06-20.88 164.52-12.06Q159.98-3.24 153.25 1.51Q146.52 6.26 140.11 6.26L140.11 6.26ZM169.49 6.26Q170.35 3.67 177.84-12.10L177.84-12.10Q188.86-36.00 192.60-44.21L192.60-44.21Q193.25-45.65 193.25-46.58L193.25-46.58Q193.25-48.17 191.16-48.17L191.16-48.17Q188.35-48.17 186.41-46.40Q184.46-44.64 183.49-41.98Q182.52-39.31 182.52-36.58L182.52-36.58Q182.52-35.06 182.81-33.12L182.81-33.12Q180.43-33.12 179.06-35.17Q177.70-37.22 177.70-39.67L177.70-39.67Q177.70-42.62 179.93-45.47Q182.16-48.31 185.65-50.08Q189.14-51.84 192.53-51.84L192.53-51.84Q195.34-51.84 197.17-50.29Q199.01-48.74 199.98-44.86Q200.95-40.97 200.95-33.98L200.95-33.98Q200.95-28.94 200.16-18.36L200.16-18.36Q199.58-10.58 199.58-8.42L199.58-8.42Q201.74-14.90 205.70-22.90Q209.66-30.89 213.59-37.69Q217.51-44.50 219.74-47.81L219.74-47.81Q220.90-49.61 221.69-50.29Q222.48-50.98 223.70-50.98L223.70-50.98Q224.71-50.98 226.87-50.18L226.87-50.18Q225.43-47.09 223.13-37.58Q220.82-28.08 219.13-17.60Q217.44-7.13 217.44-0.72L217.44-0.72Q217.44 1.51 217.66 2.59Q217.87 3.67 218.27 4.72Q218.66 5.76 218.88 6.26L218.88 6.26Q215.78 6.26 214.20 5.36Q212.62 4.46 212.04 2.48Q211.46 0.50 211.46-3.10L211.46-3.10Q211.46-10.30 213.01-18.36Q214.56-26.42 217.58-38.09L217.58-38.09Q213.05-31.61 207.65-19.73Q202.25-7.85 199.66-0.22L199.66-0.22L199.15-0.07Q198.65 0.14 198.14 0.14L198.14 0.14Q195.77 0.14 195.01-2.59Q194.26-5.33 194.26-11.30L194.26-11.30Q194.26-14.98 194.54-23.62L194.54-23.62Q194.83-32.69 194.83-36.86L194.83-36.86L194.76-41.11L187.34-23.69Q182.02-11.02 179.39-5.29Q176.76 0.43 174.42 3.35Q172.08 6.26 169.49 6.26L169.49 6.26Z"></path></svg></svg> <defs><filter id="colors3640637239"><feColorMatrix type="matrix" values="0 0 0 0 0.19921875  0 0 0 0 0.19921875  0 0 0 0 0.19921875  0 0 0 1 0" class="icon-fecolormatrix"></feColorMatrix></filter> <filter id="colorsf248718531"><feColorMatrix type="matrix" values="0 0 0 0 0.99609375  0 0 0 0 0.99609375  0 0 0 0 0.99609375  0 0 0 1 0" class="icon-fecolormatrix"></feColorMatrix></filter> <filter id="colorsb667615283"><feColorMatrix type="matrix" values="0 0 0 0 0  0 0 0 0 0  0 0 0 0 0  0 0 0 1 0" class="icon-fecolormatrix"></feColorMatrix></filter></defs></g></g> <g data-d="text" transform="translate(75.99996948242188,45.97605895996094)"><g data-gra="path-name" fill-rule="" class="tp-name iconsvg-namesvg"><g transform="scale(1)"><g><path d="" transform="translate(0, 0)"></path></g> <!----> <!----> <!----> <!----> <!----> <!----> <!----></g></g> <!----></g></g></g><defs><filter id="4ec14530-9731-4624-933c-e4fe6c5bcee2">
          <feColorMatrix type="matrix" values="0 0 0 0 0  0 0 0 0 0  0 0 0 0 0  0 0 0 1 0"></feColorMatrix>
          </filter><filter id="f5ff60e0-6eb3-4ff7-a288-ce848d353432">
          <feColorMatrix type="matrix" values="0 0 0 0 0.99609375  0 0 0 0 0.99609375  0 0 0 0 0.99609375  0 0 0 1 0"></feColorMatrix>
          </filter></defs><mask id="3e1326dd-52a5-4a74-8d6a-42e9f167ea8e"><g data-v-2cb57da0="" fill="#333333" class="j-b-g-c iconbgsvg"><g data-d="container" transform="translate(0,0)"><g><rect fill="#333333" fill-opacity="0" stroke-width="2" x="0" y="0" width="175" height="175" class="image-rect" stroke="#000"></rect> <svg filter="url(#f5ff60e0-6eb3-4ff7-a288-ce848d353432)" x="0" y="0" width="175" height="175" filtersec="colorsf8842489066" class="image-svg-container primary" style="overflow: visible;"><svg viewBox="0 0 100 100" xmlns="http://www.w3.org/2000/svg" style="overflow: visible;"><g transform="scale(1, 1) skewX(0)"><rect x="537" y="3121" width="100" height="100" rx="30" transform="translate(-537 -3121)" fill="#333" fill-rule="evenodd"></rect></g></svg></svg> <defs><filter id="colors6840380347"><feColorMatrix type="matrix" values="0 0 0 0 0.19921875  0 0 0 0 0.19921875  0 0 0 0 0.19921875  0 0 0 1 0" class="icon-fecolormatrix"></feColorMatrix></filter> <filter id="colorsf8842489066"><feColorMatrix type="matrix" values="0 0 0 0 0.99609375  0 0 0 0 0.99609375  0 0 0 0 0.99609375  0 0 0 1 0" class="icon-fecolormatrix"></feColorMatrix></filter> <filter id="colorsb3848308547"><feColorMatrix type="matrix" values="0 0 0 0 0  0 0 0 0 0  0 0 0 0 0  0 0 0 1 0" class="icon-fecolormatrix"></feColorMatrix></filter></defs></g></g> <g data-d="icon-text" hollow-target="textRect" transform="translate(11.500030517578125,67.01197052001953)" filter="url(#4ec14530-9731-4624-933c-e4fe6c5bcee2)"><g data-d="icon" class="iconsvg-imagesvg" transform="translate(0,0)"><g><!----> <svg filter="url(#colors3640637239)" x="0" y="0" width="152.00000000000006" height="38.97605793073033" filtersec="colorsf248718531" class="image-svg-svg primary" style="overflow: visible;"><svg xmlns="http://www.w3.org/2000/svg" xmlns:xlink="http://www.w3.org/1999/xlink" viewBox="0.0020000338554382324 0 226.5800018310547 58.099998474121094" style="overflow: visible;"><path transform="translate(-0.28800000000000003 51.84)" d="M16.78 6.26Q12.38 6.26 8.64 4.79Q4.90 3.31 2.59 0.32Q0.29-2.66 0.29-6.91L0.29-6.91Q0.29-12.24 3.60-14.58Q6.91-16.92 11.38-16.92L11.38-16.92Q9.07-14.54 7.88-11.95Q6.70-9.36 6.70-6.91L6.70-6.91Q6.70-3.02 9.68-0.29Q12.67 2.45 18.00 2.45L18.00 2.45Q21.38 2.45 24.44 1.33Q27.50 0.22 29.41-2.02Q31.32-4.25 31.32-7.27L31.32-7.27Q31.32-9.94 29.81-12.02Q28.30-14.11 26.10-15.62Q23.90-17.14 20.16-19.15L20.16-19.15Q16.20-21.31 13.75-22.97Q11.30-24.62 9.65-27.04Q7.99-29.45 7.99-32.62L7.99-32.62Q7.99-36.72 10.66-41.26Q13.32-45.79 18.14-48.82Q22.97-51.84 28.94-51.84L28.94-51.84Q37.94-51.84 37.94-44.28L37.94-44.28Q37.94-40.61 36.18-36.11Q34.42-31.61 32.18-28.15L32.18-28.15Q29.02-28.80 29.02-31.82L29.02-31.82Q29.02-33.19 29.56-34.96Q30.10-36.72 31.10-39.17L31.10-39.17Q32.11-41.90 32.62-43.49Q33.12-45.07 33.12-46.37L33.12-46.37Q33.12-47.74 32.29-48.42Q31.46-49.10 29.30-49.10L29.30-49.10Q24.98-49.10 21.38-46.66Q17.78-44.21 15.66-40.72Q13.54-37.22 13.54-34.27L13.54-34.27Q13.54-32.11 14.83-30.38Q16.13-28.66 18.11-27.40Q20.09-26.14 23.47-24.34L23.47-24.34Q27.72-22.03 30.28-20.30Q32.83-18.58 34.67-15.84Q36.50-13.10 36.50-9.29L36.50-9.29Q36.50-4.54 33.66-1.01Q30.82 2.52 26.24 4.39Q21.67 6.26 16.78 6.26L16.78 6.26ZM57.60 6.26Q53.21 6.26 49.46 4.79Q45.72 3.31 43.42 0.32Q41.11-2.66 41.11-6.91L41.11-6.91Q41.11-12.24 44.42-14.58Q47.74-16.92 52.20-16.92L52.20-16.92Q49.90-14.54 48.71-11.95Q47.52-9.36 47.52-6.91L47.52-6.91Q47.52-3.02 50.51-0.29Q53.50 2.45 58.82 2.45L58.82 2.45Q62.21 2.45 65.27 1.33Q68.33 0.22 70.24-2.02Q72.14-4.25 72.14-7.27L72.14-7.27Q72.14-9.94 70.63-12.02Q69.12-14.11 66.92-15.62Q64.73-17.14 60.98-19.15L60.98-19.15Q57.02-21.31 54.58-22.97Q52.13-24.62 50.47-27.04Q48.82-29.45 48.82-32.62L48.82-32.62Q48.82-36.72 51.48-41.26Q54.14-45.79 58.97-48.82Q63.79-51.84 69.77-51.84L69.77-51.84Q78.77-51.84 78.77-44.28L78.77-44.28Q78.77-40.61 77.00-36.11Q75.24-31.61 73.01-28.15L73.01-28.15Q69.84-28.80 69.84-31.82L69.84-31.82Q69.84-33.19 70.38-34.96Q70.92-36.72 71.93-39.17L71.93-39.17Q72.94-41.90 73.44-43.49Q73.94-45.07 73.94-46.37L73.94-46.37Q73.94-47.74 73.12-48.42Q72.29-49.10 70.13-49.10L70.13-49.10Q65.81-49.10 62.21-46.66Q58.61-44.21 56.48-40.72Q54.36-37.22 54.36-34.27L54.36-34.27Q54.36-32.11 55.66-30.38Q56.95-28.66 58.93-27.40Q60.91-26.14 64.30-24.34L64.30-24.34Q68.54-22.03 71.10-20.30Q73.66-18.58 75.49-15.84Q77.33-13.10 77.33-9.29L77.33-9.29Q77.33-4.54 74.48-1.01Q71.64 2.52 67.07 4.39Q62.50 6.26 57.60 6.26L57.60 6.26ZM99.65 6.26Q94.39 6.26 90.86 3.74Q87.34 1.22 85.64-2.81Q83.95-6.84 83.95-11.52L83.95-11.52Q83.95-20.81 88.52-30.20Q93.10-39.60 100.22-45.68Q107.35-51.77 114.55-51.77L114.55-51.77Q117.94-51.77 119.99-50.18Q122.04-48.60 122.04-45.22L122.04-45.22Q122.04-42.34 120.71-38.59Q119.38-34.85 117.32-32.22Q115.27-29.59 113.18-29.59L113.18-29.59Q111.38-29.59 110.23-31.82L110.23-31.82Q112.97-34.85 115.52-39.02Q118.08-43.20 118.08-45.79L118.08-45.79Q118.08-48.60 114.84-48.60L114.84-48.60Q109.80-48.60 104.15-42.48Q98.50-36.36 94.72-27.43Q90.94-18.50 90.94-10.87L90.94-10.87Q90.94-5.11 93.53-1.15Q96.12 2.81 101.38 2.81L101.38 2.81Q105.12 2.81 109.01 0.68Q112.90-1.44 116.14-4.97Q119.38-8.50 121.32-12.60L121.32-12.60L123.19-11.38Q119.09-3.60 113.00 1.33Q106.92 6.26 99.65 6.26L99.65 6.26ZM140.11 6.26Q135.86 6.26 132.41 4.07Q128.95 1.87 126.97-2.23Q124.99-6.34 124.99-11.81L124.99-11.81Q124.99-20.88 129.56-30.24Q134.14-39.60 141.48-45.68Q148.82-51.77 156.53-51.77L156.53-51.77Q159.48-51.77 161.42-49.75L161.42-49.75Q160.27-49.90 159.34-49.90L159.34-49.90Q153.29-49.90 146.99-43.85Q140.69-37.80 136.58-28.73Q132.48-19.66 132.48-11.38L132.48-11.38Q132.48-5.18 134.96-1.19Q137.45 2.81 142.63 2.81L142.63 2.81Q148.90 2.81 154.12-3.17Q159.34-9.14 162.32-18.04Q165.31-26.93 165.31-34.99L165.31-34.99Q165.31-38.95 164.56-42.16Q163.80-45.36 162.07-45.36L162.07-45.36Q160.56-45.36 158.58-42.80Q156.60-40.25 154.94-36.65Q153.29-33.05 152.71-30.17L152.71-30.17Q148.18-31.10 148.18-34.34L148.18-34.34Q148.18-36.86 150.55-40.18Q152.93-43.49 156.24-45.90Q159.55-48.31 162.22-48.31L162.22-48.31Q166.03-48.31 167.54-43.49Q169.06-38.66 169.06-32.40L169.06-32.40Q169.06-20.88 164.52-12.06Q159.98-3.24 153.25 1.51Q146.52 6.26 140.11 6.26L140.11 6.26ZM169.49 6.26Q170.35 3.67 177.84-12.10L177.84-12.10Q188.86-36.00 192.60-44.21L192.60-44.21Q193.25-45.65 193.25-46.58L193.25-46.58Q193.25-48.17 191.16-48.17L191.16-48.17Q188.35-48.17 186.41-46.40Q184.46-44.64 183.49-41.98Q182.52-39.31 182.52-36.58L182.52-36.58Q182.52-35.06 182.81-33.12L182.81-33.12Q180.43-33.12 179.06-35.17Q177.70-37.22 177.70-39.67L177.70-39.67Q177.70-42.62 179.93-45.47Q182.16-48.31 185.65-50.08Q189.14-51.84 192.53-51.84L192.53-51.84Q195.34-51.84 197.17-50.29Q199.01-48.74 199.98-44.86Q200.95-40.97 200.95-33.98L200.95-33.98Q200.95-28.94 200.16-18.36L200.16-18.36Q199.58-10.58 199.58-8.42L199.58-8.42Q201.74-14.90 205.70-22.90Q209.66-30.89 213.59-37.69Q217.51-44.50 219.74-47.81L219.74-47.81Q220.90-49.61 221.69-50.29Q222.48-50.98 223.70-50.98L223.70-50.98Q224.71-50.98 226.87-50.18L226.87-50.18Q225.43-47.09 223.13-37.58Q220.82-28.08 219.13-17.60Q217.44-7.13 217.44-0.72L217.44-0.72Q217.44 1.51 217.66 2.59Q217.87 3.67 218.27 4.72Q218.66 5.76 218.88 6.26L218.88 6.26Q215.78 6.26 214.20 5.36Q212.62 4.46 212.04 2.48Q211.46 0.50 211.46-3.10L211.46-3.10Q211.46-10.30 213.01-18.36Q214.56-26.42 217.58-38.09L217.58-38.09Q213.05-31.61 207.65-19.73Q202.25-7.85 199.66-0.22L199.66-0.22L199.15-0.07Q198.65 0.14 198.14 0.14L198.14 0.14Q195.77 0.14 195.01-2.59Q194.26-5.33 194.26-11.30L194.26-11.30Q194.26-14.98 194.54-23.62L194.54-23.62Q194.83-32.69 194.83-36.86L194.83-36.86L194.76-41.11L187.34-23.69Q182.02-11.02 179.39-5.29Q176.76 0.43 174.42 3.35Q172.08 6.26 169.49 6.26L169.49 6.26Z"></path></svg></svg> <defs><filter id="colors3640637239"><feColorMatrix type="matrix" values="0 0 0 0 0.19921875  0 0 0 0 0.19921875  0 0 0 0 0.19921875  0 0 0 1 0" class="icon-fecolormatrix"></feColorMatrix></filter> <filter id="colorsf248718531"><feColorMatrix type="matrix" values="0 0 0 0 0.99609375  0 0 0 0 0.99609375  0 0 0 0 0.99609375  0 0 0 1 0" class="icon-fecolormatrix"></feColorMatrix></filter> <filter id="colorsb667615283"><feColorMatrix type="matrix" values="0 0 0 0 0  0 0 0 0 0  0 0 0 0 0  0 0 0 1 0" class="icon-fecolormatrix"></feColorMatrix></filter></defs></g></g> <g data-d="text" transform="translate(75.99996948242188,45.97605895996094)"><g data-gra="path-name" fill-rule="" class="tp-name iconsvg-namesvg"><g transform="scale(1)"><g><path d="" transform="translate(0, 0)"></path></g> <!----> <!----> <!----> <!----> <!----> <!----> <!----></g></g> <!----></g></g></g></mask><defs v-gra="od"></defs></svg>